<svg width="285" height="175" viewBox="0 0 285 175" fill="none" xmlns="http://www.w3.org/2000/svg">
<g clip-path="url(#clip0)">
<path d="M103.354 154.746V156.453H182.593V154.746H103.354Z" fill="#CCD7EB"/>
<path d="M103.354 170.88V172.587H182.593V170.88H103.354Z" fill="#CCD7EB"/>
<path d="M165.157 145.461H119.136V175H165.157V145.461Z" fill="#90A8C2"/>
<path d="M278.584 175H6.41634C4.28005 130.518 2.14131 86.0354 0 41.553H285C282.859 86.0203 280.72 130.503 278.584 175Z" fill="#E6E5E5"/>
<path d="M102.256 56.4314H0.707036C0.594203 53.9955 0.47387 51.5671 0.353516 49.1312H102.143C102.181 51.5671 102.256 53.9955 102.256 56.4314Z" fill="#FFFEFB"/>
<path d="M284.293 56.4314H182.744C182.744 53.9955 182.804 51.5671 182.841 49.1312H284.624C284.519 51.5671 284.398 53.9955 284.293 56.4314Z" fill="#FFFEFB"/>
<path d="M75.8612 91.0898H102.723L102.249 56.4312H75.0713L75.8612 91.0898Z" fill="#FDD53F"/>
<path d="M43.997 91.0898H70.8587C70.5728 79.5369 70.2895 67.984 70.0087 56.4312H42.8311L43.997 91.0898Z" fill="#7FC0D7"/>
<path d="M12.133 91.0898H38.9947C38.5785 79.5369 38.1673 67.984 37.7611 56.4312H10.5835C11.105 67.979 11.6215 79.5319 12.133 91.0898Z" fill="#7FC0D7"/>
<path d="M45.419 133.064H71.8896C71.6037 121.536 71.3204 109.985 71.0396 98.4125H44.2456L45.419 133.064Z" fill="#7FC0D7"/>
<path d="M14.0139 133.064H40.4844C40.0782 121.536 39.667 109.985 39.2508 98.4125H12.4644C12.9759 109.945 13.4923 121.496 14.0139 133.064Z" fill="#7FC0D7"/>
<path d="M46.8329 175H72.9198C72.644 163.472 72.3607 151.919 72.0698 140.341H45.667C46.0581 151.894 46.4467 163.447 46.8329 175Z" fill="#7FC0D7"/>
<path d="M15.887 175H41.9738C41.5677 163.472 41.1589 151.919 40.7477 140.341H14.3374C14.8589 151.894 15.3755 163.447 15.887 175Z" fill="#7FC0D7"/>
<path d="M246.005 91.0898H272.867C273.368 79.5369 273.885 67.984 274.416 56.4312H247.239C246.827 67.979 246.416 79.5319 246.005 91.0898Z" fill="#7FC0D7"/>
<path d="M214.141 91.0898H241.003C241.394 79.5369 241.783 67.984 242.169 56.4312H214.991C214.705 67.979 214.422 79.5319 214.141 91.0898Z" fill="#7FC0D7"/>
<path d="M244.516 133.064H270.986C271.488 121.536 272.004 109.985 272.536 98.4125H245.742C245.336 109.945 244.927 121.496 244.516 133.064Z" fill="#7FC0D7"/>
<path d="M213.111 133.064H239.581L240.755 98.4125H213.961C213.675 109.945 213.392 121.496 213.111 133.064Z" fill="#7FC0D7"/>
<path d="M243.026 175H269.113C269.615 163.472 270.131 151.919 270.663 140.341H244.252C243.866 151.894 243.458 163.447 243.026 175Z" fill="#7FC0D7"/>
<path d="M212.08 175H238.167L239.34 140.341H212.938L212.08 175Z" fill="#7FC0D7"/>
<path d="M77.779 175H103.866C103.705 163.472 103.55 151.919 103.4 140.341H76.9893L77.779 175Z" fill="#FDD53F"/>
<path d="M181.126 175H207.213C207.484 163.472 207.75 151.919 208.011 140.341H181.6L181.126 175Z" fill="#FDD53F"/>
<path d="M76.824 133.064H103.295C103.194 125.656 103.094 118.251 102.994 110.848H76.3125C76.488 118.236 76.6585 125.641 76.824 133.064Z" fill="#FDD53F"/>
<path d="M182.277 91.09H209.139C209.305 83.6871 209.473 76.2818 209.643 68.8739H182.563C182.478 76.2818 182.383 83.6871 182.277 91.09Z" fill="#FDD53F"/>
<path d="M181.706 133.064H208.176L208.492 119.373H181.886L181.706 133.064Z" fill="#FDD53F"/>
<path d="M24.9433 175H23.4389L18.4517 56.4312H19.9561C21.636 95.9516 23.2985 135.475 24.9433 175Z" fill="#CCD7EB"/>
<path d="M10.9898 65.5204C10.9898 64.949 10.9371 64.3852 10.9146 63.8138H37.9944C37.9944 64.3852 38.032 64.949 38.0546 65.5204H10.9898Z" fill="#CCD7EB"/>
<path d="M11.396 74.61C11.396 74.0461 11.3434 73.4747 11.3208 72.9033H38.3179L38.378 74.61H11.396Z" fill="#CCD7EB"/>
<path d="M11.8247 84.2486C11.8247 83.6773 11.7796 83.1134 11.7495 82.542H38.6939L38.754 84.2486H11.8247Z" fill="#CCD7EB"/>
<path d="M43.1323 65.5204C43.1323 64.949 43.0946 64.3852 43.0796 63.8138H70.1594L70.1971 65.5204H43.1323Z" fill="#CCD7EB"/>
<path d="M43.4406 74.61C43.4406 74.0461 43.4405 73.4747 43.3804 72.9033H70.4151C70.4151 73.4747 70.4151 74.0461 70.4151 74.61H43.4406Z" fill="#CCD7EB"/>
<path d="M43.764 84.2486C43.764 83.6773 43.7641 83.1134 43.7114 82.542H70.6633L70.7085 84.2486H43.764Z" fill="#CCD7EB"/>
<path d="M12.8555 107.201C12.8555 106.637 12.8028 106.066 12.7803 105.502H39.5065L39.5667 107.201H12.8555Z" fill="#CCD7EB"/>
<path d="M13.2617 116.298C13.2617 115.727 13.2091 115.156 13.1865 114.592H39.8226L39.8827 116.298H13.2617Z" fill="#CCD7EB"/>
<path d="M13.6904 125.929C13.6904 125.365 13.6453 124.794 13.6152 124.23H40.1684L40.2362 125.929H13.6904Z" fill="#CCD7EB"/>
<path d="M44.5461 107.201C44.5461 106.637 44.546 106.066 44.4858 105.502H71.2121L71.2573 107.201H44.5461Z" fill="#CCD7EB"/>
<path d="M44.8546 116.298C44.8546 115.727 44.8095 115.156 44.7944 114.592H71.4154C71.4154 115.156 71.4154 115.727 71.4154 116.298H44.8546Z" fill="#CCD7EB"/>
<path d="M45.1783 125.929C45.1783 125.365 45.1783 124.794 45.1182 124.23H71.6714L71.7165 125.929H45.1783Z" fill="#CCD7EB"/>
<path d="M14.7207 148.89C14.7207 148.318 14.6681 147.754 14.6455 147.183H40.9731L41.0332 148.89H14.7207Z" fill="#CCD7EB"/>
<path d="M15.1271 157.979C15.1271 157.408 15.0743 156.844 15.0518 156.272H41.3267C41.3267 156.844 41.3267 157.408 41.3869 157.979H15.1271Z" fill="#CCD7EB"/>
<path d="M15.5557 167.647C15.5557 167.076 15.5106 166.512 15.4805 165.94H41.6501L41.7103 167.647H15.5557Z" fill="#CCD7EB"/>
<path d="M45.9528 148.89C45.9528 148.318 45.9151 147.754 45.8926 147.183H72.2202L72.2654 148.89H45.9528Z" fill="#CCD7EB"/>
<path d="M46.2614 157.979C46.2614 157.408 46.2613 156.844 46.2012 156.272H72.4611L72.5062 157.979H46.2614Z" fill="#CCD7EB"/>
<path d="M46.5922 167.647C46.5922 167.076 46.5922 166.512 46.5396 165.94H72.7091C72.7091 166.512 72.7091 167.076 72.7091 167.647H46.5922Z" fill="#CCD7EB"/>
<path d="M212.719 148.89C212.719 148.318 212.719 147.754 212.719 147.183H239.047C239.047 147.754 239.002 148.318 238.987 148.89H212.719Z" fill="#CCD7EB"/>
<path d="M212.494 157.979L212.539 156.272H238.799C238.799 156.844 238.799 157.408 238.739 157.979H212.494Z" fill="#CCD7EB"/>
<path d="M212.261 167.647C212.261 167.076 212.261 166.512 212.261 165.94H238.43C238.43 166.512 238.393 167.076 238.378 167.647H212.261Z" fill="#CCD7EB"/>
<path d="M243.952 148.89L244.012 147.183H270.339L270.264 148.89H243.952Z" fill="#CCD7EB"/>
<path d="M243.628 157.979L243.688 156.272H269.948C269.948 156.844 269.895 157.408 269.873 157.979H243.628Z" fill="#CCD7EB"/>
<path d="M243.282 167.647L243.342 165.94H269.52C269.52 166.512 269.467 167.076 269.437 167.647H243.282Z" fill="#CCD7EB"/>
<path d="M213.743 107.306C213.743 106.735 213.743 106.164 213.743 105.6H240.469C240.469 106.164 240.469 106.735 240.416 107.306H213.743Z" fill="#CCD7EB"/>
<path d="M213.517 116.396L213.562 114.689H240.205C240.205 115.253 240.16 115.824 240.145 116.396H213.517Z" fill="#CCD7EB"/>
<path d="M213.284 126.027C213.284 125.463 213.284 124.892 213.284 124.328H239.912C239.912 124.892 239.875 125.463 239.86 126.027H213.284Z" fill="#CCD7EB"/>
<path d="M245.426 107.306L245.486 105.6H272.212C272.212 106.164 272.167 106.735 272.137 107.306H245.426Z" fill="#CCD7EB"/>
<path d="M245.103 116.396C245.103 115.824 245.148 115.253 245.163 114.689H271.806C271.806 115.253 271.761 115.824 271.731 116.396H245.103Z" fill="#CCD7EB"/>
<path d="M244.764 126.027L244.824 124.328H271.377C271.377 124.892 271.324 125.463 271.302 126.027H244.764Z" fill="#CCD7EB"/>
<path d="M214.773 65.2502L214.818 63.5436H241.898C241.898 64.115 241.898 64.6788 241.845 65.2502H214.773Z" fill="#CCD7EB"/>
<path d="M214.555 74.3397C214.555 73.7683 214.555 73.2044 214.592 72.6331H241.627C241.627 73.2044 241.627 73.7683 241.567 74.3397H214.555Z" fill="#CCD7EB"/>
<path d="M214.337 83.9779L214.382 82.2712H241.319C241.319 82.8351 241.281 83.4065 241.266 83.9779H214.337Z" fill="#CCD7EB"/>
<path d="M246.923 65.2502L246.983 63.5436H274.1C274.1 64.115 274.048 64.6788 274.018 65.2502H246.923Z" fill="#CCD7EB"/>
<path d="M246.599 74.3397L246.659 72.6331H273.694C273.694 73.2044 273.641 73.7683 273.611 74.3397H246.599Z" fill="#CCD7EB"/>
<path d="M246.261 83.9779L246.321 82.2712H273.258C273.258 82.8351 273.205 83.4065 273.183 83.9779H246.261Z" fill="#CCD7EB"/>
<path d="M34.3915 175H32.8871C31.3525 135.48 29.8205 95.9566 28.291 56.4312H29.7954L34.3915 175Z" fill="#CCD7EB"/>
<path d="M55.8897 175H54.4229C53.1943 135.48 51.9631 95.9566 50.7295 56.4312H52.2339L55.8897 175Z" fill="#CCD7EB"/>
<path d="M65.3377 175H63.8333L60.5386 56.4312H62.043C63.1563 95.9516 64.2545 135.475 65.3377 175Z" fill="#CCD7EB"/>
<path d="M221.106 175H219.64L222.867 56.6267H224.371C223.313 96.082 222.225 135.54 221.106 175Z" fill="#CCD7EB"/>
<path d="M230.577 175H229.073C230.286 135.545 231.495 96.087 232.698 56.6267H234.203C232.994 96.082 231.786 135.54 230.577 175Z" fill="#CCD7EB"/>
<path d="M252.075 175H250.608C252.113 135.545 253.617 96.087 255.122 56.6267H256.626C255.117 96.082 253.6 135.54 252.075 175Z" fill="#CCD7EB"/>
<path d="M261.523 175H260.019L264.939 56.6267H266.443C264.803 96.082 263.163 135.54 261.523 175Z" fill="#CCD7EB"/>
<path d="M94.9597 98.39H2.73027C2.61744 95.9541 2.49711 93.5182 2.38428 91.0898H94.8393C94.8794 93.5107 94.9196 95.9441 94.9597 98.39Z" fill="#FFFEFB"/>
<path d="M95.6443 140.341H4.75391C4.63356 137.913 4.52075 135.477 4.40039 133.041H95.524C95.5616 135.477 95.6066 137.913 95.6443 140.341Z" fill="#FFFEFB"/>
<path d="M282.262 98.39H190.078L190.198 91.0898H282.615C282.505 93.5107 282.387 95.9441 282.262 98.39Z" fill="#FFFEFB"/>
<path d="M280.246 140.341H189.393L189.513 133.064H280.607C280.479 135.477 280.366 137.913 280.246 140.341Z" fill="#FFFEFB"/>
<path d="M195.531 14.7055H88.8067C88.7265 9.80367 88.6387 4.90183 88.5435 0H195.795C195.684 4.90183 195.596 9.80367 195.531 14.7055Z" fill="#BDD4D3"/>
<path d="M188.761 175H96.2387C95.5015 129.982 94.7668 84.9604 94.0347 39.9366H191.018C190.266 84.9804 189.514 130.002 188.761 175Z" fill="#C9F2FF"/>
<path d="M191.176 29.0353H93.8242L94.0047 39.9366H191.018L191.176 29.0353Z" fill="#859EA7"/>
<path d="M82.7739 19.1112H201.549C198.139 22.4192 194.746 25.7272 191.371 29.0352H93.982C90.256 25.7122 86.52 22.4042 82.7739 19.1112Z" fill="#869FAA"/>
<path d="M201.594 14.7053H82.6987L82.789 19.1109H201.549L201.594 14.7053Z" fill="#BDD4D3"/>
<path d="M191.447 14.7055H92.831C92.7457 9.80367 92.6656 4.90183 92.5903 0H191.687C191.602 4.90183 191.522 9.80367 191.447 14.7055Z" fill="#C9F2FF"/>
<path d="M82.7739 19.1112C83.7217 26.6294 84.667 34.1475 85.6098 41.6657L94.1625 49.6725L93.982 29.0276C90.256 25.7096 86.52 22.4042 82.7739 19.1112Z" fill="#868B7C"/>
<path d="M201.549 19.1112C200.887 26.6294 200.235 34.1475 199.593 41.6657C196.675 44.3321 193.769 46.9985 190.875 49.665L191.214 29.0276C194.619 25.7096 198.064 22.4042 201.549 19.1112Z" fill="#868B7C"/>
<path d="M93.9819 29.0353H191.176" stroke="#66848F" stroke-miterlimit="10"/>
<path d="M147.269 39.1395H137.731C137.731 32.7942 137.731 26.4514 137.731 20.1111H147.329C147.304 26.4564 147.284 32.7992 147.269 39.1395Z" fill="#94BCD7"/>
<path d="M144.381 37.3728H140.695C140.695 32.2054 140.695 27.0404 140.695 21.8779H144.381C144.356 27.0454 144.356 32.2104 144.381 37.3728Z" fill="#BDE4FA"/>
<path d="M104.069 175H96.2387C95.5015 129.982 94.7668 84.9604 94.0347 39.9366H102.256C102.853 84.9804 103.458 130.002 104.069 175Z" fill="#BABFC2"/>
<path d="M154.039 139.718H152.264L152.602 39.9366H154.438C154.302 73.1969 154.169 106.457 154.039 139.718Z" fill="#CCD7EB"/>
<path d="M132.345 139.718H130.57C130.424 106.457 130.284 73.1969 130.148 39.9366H131.991C132.082 73.1969 132.199 106.457 132.345 139.718Z" fill="#CCD7EB"/>
<path d="M182.601 51.9279V53.6344H102.444V51.9279H182.601Z" fill="#CCD7EB"/>
<path d="M182.488 66.3704V68.077H102.715V66.3704H182.488Z" fill="#CCD7EB"/>
<path d="M182.368 80.8201V82.5267H103.009V80.8201H182.368Z" fill="#CCD7EB"/>
<path d="M182.247 95.2698V96.9689H103.264V95.2698H182.247Z" fill="#CCD7EB"/>
<path d="M182.127 109.712V111.419H103.542V109.712H182.127Z" fill="#CCD7EB"/>
<path d="M181.991 124.162C181.991 124.726 181.991 125.297 181.991 125.861H103.761V124.162H181.991Z" fill="#CCD7EB"/>
<path d="M181.893 138.605C181.893 139.176 181.893 139.74 181.893 140.311H104.062V138.605H181.893Z" fill="#CCD7EB"/>
<path d="M181.683 153.889C181.683 154.453 181.683 155.024 181.683 155.596H104.295V153.889H181.683Z" fill="#CCD7EB"/>
<path d="M181.473 169.151V170.858H104.513V169.151H181.473Z" fill="#CCD7EB"/>
<path d="M110.967 175H109.215C108.678 129.982 108.149 84.9604 107.627 39.9366H109.463C109.969 84.9804 110.471 130.002 110.967 175Z" fill="#CCD7EB"/>
<path d="M175.357 175H173.604C174.105 129.982 174.607 84.9604 175.108 39.9366H176.951C176.41 84.9804 175.878 130.002 175.357 175Z" fill="#CCD7EB"/>
<path d="M168.301 145.461H116.007L110.583 140.883H173.717L168.301 145.461Z" fill="#AEB1B1"/>
<path d="M168.354 139.717H115.954L110.583 140.883H173.717L168.354 139.717Z" fill="#D8D3C6"/>
<path d="M188.762 175H180.901C181.533 130.002 182.147 84.9804 182.744 39.9366H191.018C190.266 84.9804 189.514 130.002 188.762 175Z" fill="#BABFC2"/>
<path d="M119.136 145.461H115.473V175H119.136V145.461Z" fill="#BEBEBC"/>
<path d="M168.82 145.461H165.157V175H168.82V145.461Z" fill="#BEBEBC"/>
<path d="M143.102 145.461H141.071V175H143.102V145.461Z" fill="#A0AFD2"/>
</g>
<defs>
<clipPath id="clip0">
<rect width="285" height="175" fill="white"/>
</clipPath>
</defs>
</svg>
